<svg xmlns="http://www.w3.org/2000/svg"
 xmlns:xlink="http://www.w3.org/1999/xlink"
 width="122px" height="42px"  viewBox="0 0 122 42">
<path fill-rule="evenodd"  fill="#212121"
 d="M61.0,0.9998779 C72.045654,0.9998779 81.0,9.954285 81.0,21.000122 C81.0,32.045593 72.045654,41.0 61.0,41.0 C49.954346,41.0 41.0,32.045593 41.0,21.000122 C41.0,9.954285 49.954346,0.9998779 61.0,0.9998779 ZM106.0,5.999817 C114.2843,5.999817 121.0,12.71582 121.0,21.000122 C121.0,29.284363 114.2843,36.0 106.0,36.0 C97.71576,36.0 91.0,29.284363 91.0,21.000122 C91.0,12.71582 97.71576,5.999817 106.0,5.999817 ZM16.0,5.999817 C24.28424,5.999817 31.0,12.71582 31.0,21.000122 C31.0,29.284363 24.28424,36.0 16.0,36.0 C7.7156982,36.0 1.0,29.284363 1.0,21.000122 C1.0,12.71582 7.7156982,5.999817 16.0,5.999817 Z"/>
</svg>